<svg viewBox="0 0 57 57" fill="none" xmlns="http://www.w3.org/2000/svg" class="sc-1aw5ue8-1 cLMEzT"><path fill-rule="evenodd" clip-rule="evenodd" d="M11.7499 11.765L5.74695 8.50997C5.74695 8.50997 22.2629 8.51897 30.1189 8.52397C32.7169 8.52597 35.2089 9.55997 37.0449 11.401C37.4139 10.974 37.6089 10.742 38.2669 10.15C39.6079 8.94397 41.4089 7.59997 44.5899 7.53597C45.4839 7.51697 46.6899 7.71097 47.3349 8.46097C48.6829 8.45197 50.1089 8.58997 51.2529 8.72497L47.8839 11.505C47.1609 15.897 45.0299 17.518 44.0559 18.38C45.9619 20.257 47.0179 22.831 47.0159 25.506C47.0079 33.344 46.9919 49.466 46.9919 49.466L46.9909 49.464V49.466C46.9909 49.466 41.7369 39.753 39.3779 35.612C38.2439 33.62 37.3739 30.639 36.4269 27.047C36.1149 27.407 17.9299 47.859 17.9299 47.859L26.3929 29.072L7.59495 37.56C7.59495 37.56 27.6799 19.718 28.4169 19.059C26.2769 18.396 22.6389 17.698 19.8689 16.167C16.9579 14.557 11.7499 11.765 11.7499 11.765Z" fill="#B91D00"></path><path fill-rule="evenodd" clip-rule="evenodd" d="M24.187 30.068L7.59497 37.56C7.59497 37.56 10.82 34.695 14.734 31.218C15.503 31.308 16.285 31.355 17.078 31.355C19.581 31.355 21.978 30.904 24.187 30.068ZM26.393 29.072L26.39 29.073L26.393 29.072V29.071V29.072Z" fill="#0C77E2"></path><path fill-rule="evenodd" clip-rule="evenodd" d="M26.3929 29.072C27.4699 28.502 28.4889 27.836 29.4379 27.085C29.6889 28.354 29.8209 29.665 29.8209 31.006C29.8209 32.342 29.6899 33.647 29.4409 34.91C24.2009 40.806 17.9299 47.859 17.9299 47.859L26.3929 29.072Z" fill="#57239F"></path><path fill-rule="evenodd" clip-rule="evenodd" d="M10.1759 10.9109C13.1859 10.9779 16.0339 11.7079 18.5789 12.9609C17.3989 13.1779 16.1839 13.2919 14.9419 13.2919C14.8209 13.2919 14.7009 13.2909 14.5809 13.2879C12.9809 12.4249 11.7499 11.7649 11.7499 11.7649L10.1759 10.9109Z" fill="#F19700"></path><path fill-rule="evenodd" clip-rule="evenodd" d="M27.897 8.52295L30.119 8.52395C32.717 8.52595 35.209 9.55995 37.045 11.4009V11.3999C37.041 17.7499 34.067 23.4249 29.438 27.0849C28.966 24.6999 28.071 22.4669 26.835 20.4659C27.727 19.6729 28.303 19.1609 28.417 19.0589C27.537 18.7859 26.404 18.5079 25.182 18.1679C23.38 16.0009 21.132 14.2179 18.579 12.9609C22.091 12.3139 25.284 10.7489 27.897 8.52295Z" fill="#A41600"></path><path fill-rule="evenodd" clip-rule="evenodd" d="M47.006 35.5179L46.992 49.4659L46.991 49.4639V49.4659C46.991 49.4659 46.5 48.5579 45.751 47.1789C45.157 45.7369 44.83 44.1579 44.83 42.5039C44.83 39.9099 45.634 37.5029 47.006 35.5179Z" fill="#F19700"></path><path fill-rule="evenodd" clip-rule="evenodd" d="M36.428 27.047C37.452 25.849 38.63 24.788 39.933 23.894C40.87 28.56 43.434 32.64 47.006 35.518C45.634 37.503 44.83 39.91 44.83 42.504C44.83 44.158 45.157 45.737 45.75 47.178C44.048 44.047 41.015 38.487 39.378 35.612C38.244 33.62 37.374 30.639 36.428 27.047Z" fill="#F8C100"></path><path fill-rule="evenodd" clip-rule="evenodd" d="M32.793 31.14C33.217 25.728 35.8 20.919 39.68 17.574C39.588 18.35 39.541 19.139 39.541 19.939C39.541 21.293 39.676 22.616 39.933 23.894C38.63 24.788 37.452 25.849 36.428 27.047H36.427C36.34 27.147 34.87 28.802 32.793 31.14Z" fill="#E96F00"></path><path fill-rule="evenodd" clip-rule="evenodd" d="M46.057 21.205C46.685 22.536 47.017 24.005 47.016 25.506L47.006 35.518C43.434 32.64 40.87 28.56 39.933 23.894C41.76 22.64 43.83 21.715 46.057 21.205Z" fill="#F4B400"></path><path fill-rule="evenodd" clip-rule="evenodd" d="M47.4309 13.437C46.4989 16.404 44.8719 17.6579 44.0559 18.3799C44.8919 19.2039 45.5649 20.162 46.0569 21.205C43.8299 21.715 41.7599 22.6399 39.9329 23.8939C39.6759 22.6159 39.5409 21.2929 39.5409 19.9389C39.5409 19.1389 39.5879 18.3499 39.6799 17.5739C41.8939 15.6649 44.5309 14.232 47.4309 13.437Z" fill="#DD6200"></path><path fill-rule="evenodd" clip-rule="evenodd" d="M43.8239 7.57797C44.0699 7.55497 44.3249 7.54097 44.5899 7.53597C45.4839 7.51697 46.6899 7.71097 47.3349 8.46097C48.6829 8.45197 50.1089 8.58997 51.2529 8.72497L47.8839 11.505C47.7669 12.219 47.6119 12.86 47.4309 13.437C44.5309 14.232 41.8939 15.665 39.6799 17.574C40.1219 13.828 41.6019 10.397 43.8239 7.57797Z" fill="#921000"></path><path fill-rule="evenodd" clip-rule="evenodd" d="M27.8959 8.52295C25.2829 10.7489 22.091 12.3149 18.5789 12.9609C16.0339 11.7079 13.1859 10.9779 10.1759 10.9109L5.74695 8.50995L27.8959 8.52295Z" fill="#DD6200"></path></svg>