<svg width="30" height="30" xmlns="http://www.w3.org/2000/svg" class="sc-lc0toc-1 jCbWsz"><path fill-rule="evenodd" clip-rule="evenodd" d="M20.5722 9.7452C20.5681 6.56947 18.0785 3.99788 15.0102 4C11.9419 4.00212 9.4556 6.57714 9.4556 9.75287C9.46174 12.932 11.9535 15.5058 15.025 15.5057C18.0934 15.4994 20.5763 12.9209 20.5722 9.7452ZM18.3667 9.75287C18.3667 11.663 16.8706 13.2115 15.025 13.2115C13.1795 13.2115 11.6833 11.663 11.6833 9.75287C11.6833 7.84271 13.1795 6.29422 15.025 6.29422C16.8706 6.29422 18.3667 7.84271 18.3667 9.75287ZM5 25.8241V27H25C25 27 25 26.1648 25 25.8241C25 19.3635 19.4497 16.6587 15.025 16.6587C10.6808 16.6587 5 19.4947 5 25.8241ZM15.025 18.9529C18.4702 18.9529 22.2653 20.6937 22.8222 24.7634H7.22775C7.78469 20.7053 11.5797 18.9529 15.025 18.9529Z"></path></svg>