<svg xmlns="http://www.w3.org/2000/svg" fill="none" viewBox="0 0 32 32"><path fill="#fff" d="M10 2.5c-.2 0-.4.1-.5.2L4.7 5.6H1c-.6 0-1 .4-1 1v6c0 .6.4 1 1 1h3.7l4.8 2.9c.2.1.3.2.5.2.6 0 1-.4 1-1v-12c0-.8-.4-1.2-1-1.2M9 13.7l-3.5-2.1c-.2-.1-.3-.2-.5-.2H2v-4h3c.2 0 .4-.1.5-.2L9 5.1zm8.7-9.9c-.2-.2-.4-.3-.7-.3-.6 0-1 .4-1 1 0 .3.1.5.3.7C17.4 6.3 18 7.8 18 9.5s-.6 3.2-1.7 4.3c-.2.2-.3.4-.3.7 0 .6.4 1 1 1 .3 0 .6-.2.8-.5 1.4-1.4 2.2-3.4 2.2-5.5 0-2.2-.8-4.2-2.3-5.7m3-3c-.2-.2-.4-.3-.7-.3-.6 0-1 .4-1 1 0 .3.1.6.3.7C21.1 4 22 6.7 22 9.5s-.9 5.5-2.7 7.3c-.2.2-.3.4-.3.7 0 .6.4 1 1 1 .3 0 .5-.1.7-.3C22.9 16 24 12.8 24 9.5S22.9 2.9 20.7.8m-6 6c-.2-.2-.4-.3-.7-.3-.6 0-1 .4-1 1 0 .3.1.5.3.7.4.4.7.7.7 1.3s-.3.9-.7 1.3c-.2.2-.3.4-.3.7 0 .6.4 1 1 1 .3 0 .5-.1.7-.3.7-.7 1.3-1.6 1.3-2.7s-.6-2-1.3-2.7"/></svg>