<svg aria-hidden="true" style="position: absolute; width: 0; height: 0; overflow: hidden;" version="1.1" xmlns="http://www.w3.org/2000/svg" xmlns:xlink="http://www.w3.org/1999/xlink">
<defs>
<symbol id="icon-geoloc" viewBox="0 0 32 32">
<path d="M24.647 3.057c0.241-0.242 0.575-0.391 0.943-0.391s0.702 0.149 0.943 0.391v0c7.289 7.289 7.289 19.109 0 26.399-0.241 0.242-0.575 0.391-0.943 0.391-0.737 0-1.334-0.597-1.334-1.334 0-0.368 0.149-0.701 0.39-0.943v0c6.249-6.249 6.249-16.38 0-22.627-0.242-0.241-0.391-0.575-0.391-0.943s0.149-0.702 0.391-0.943v0zM22.761 6.827c-0.243-0.251-0.583-0.407-0.959-0.407-0.736 0-1.333 0.597-1.333 1.333 0 0.376 0.156 0.716 0.407 0.959l0 0c1.93 1.93 3.124 4.597 3.124 7.543s-1.194 5.612-3.124 7.543v0c-0.232 0.24-0.374 0.566-0.374 0.926 0 0.736 0.597 1.333 1.333 1.333 0.36 0 0.687-0.143 0.927-0.375l-0 0c5.207-5.207 5.207-13.648 0-18.856zM18.991 10.6c-0.241-0.242-0.575-0.391-0.943-0.391-0.737 0-1.334 0.597-1.334 1.334 0 0.368 0.149 0.701 0.39 0.943v0c0.965 0.965 1.562 2.299 1.562 3.771s-0.597 2.806-1.562 3.771v0c-0.241 0.241-0.39 0.575-0.39 0.943 0 0.737 0.597 1.334 1.334 1.334 0.368 0 0.702-0.149 0.943-0.391v0c1.448-1.448 2.343-3.448 2.343-5.657s-0.895-4.209-2.343-5.657v0zM14.667 8.053c0-1.676-1.94-2.609-3.249-1.561l-5.219 4.175h-2.199c-2.209 0-4 1.791-4 4v0 2.667c0 2.209 1.791 4 4 4v0h2.2l5.217 4.175c1.309 1.048 3.249 0.115 3.249-1.561zM7.865 12.749l4.135-3.309v13.117l-4.135-3.307c-0.452-0.364-1.033-0.584-1.665-0.584-0 0-0.001 0-0.001 0h-2.199c-0.736 0-1.333-0.597-1.333-1.333v0-2.667c0-0.736 0.597-1.333 1.333-1.333v0h2.2c0.632-0 1.213-0.22 1.67-0.588l-0.005 0.004z"></path>
</symbol>
<symbol id="icon-location" viewBox="0 0 25 32">
<path fill="none" stroke="#fff" style="stroke: var(--color1, #fff)" stroke-linejoin="miter" stroke-linecap="butt" stroke-miterlimit="4" stroke-width="3.3333" d="M23.667 13.194c0 1.403-0.625 3.191-1.766 5.211-1.12 1.984-2.638 4.018-4.194 5.867-1.551 1.844-3.111 3.469-4.291 4.632-0.315 0.31-0.601 0.587-0.852 0.824-0.239-0.235-0.511-0.506-0.809-0.808-1.151-1.167-2.682-2.794-4.208-4.638-1.531-1.851-3.028-3.885-4.134-5.87-1.126-2.020-1.746-3.812-1.746-5.219 0-6.475 4.947-11.528 11-11.528s11 5.053 11 11.528z"></path>
<path fill="#fff" style="fill: var(--color1, #fff); stroke: var(--color1, #fff)" stroke="#fff" stroke-linejoin="miter" stroke-linecap="butt" stroke-miterlimit="4" stroke-width="1.3333" d="M15.333 12.667c0 1.473-1.194 2.667-2.667 2.667s-2.667-1.194-2.667-2.667c0-1.473 1.194-2.667 2.667-2.667s2.667 1.194 2.667 2.667z"></path>
</symbol>
</defs>
</svg>